<?xml version="1.0" encoding="UTF-8"?>
<svg xmlns="http://www.w3.org/2000/svg" xmlns:xlink="http://www.w3.org/1999/xlink" width="28px" height="28px" viewBox="0 0 28 28" version="1.1">
<g id="surface1">
<path style="stroke:none;fill-rule:nonzero;fill:rgb(100%,100%,100%);fill-opacity:1;" d="M 14 0.046875 C 6.292969 0.046875 0.0429688 6.296875 0.0429688 14.003906 C 0.0429688 21.710938 6.292969 27.960938 14 27.960938 C 21.707031 27.960938 27.957031 21.710938 27.957031 14.003906 C 27.957031 6.296875 21.707031 0.046875 14 0.046875 Z M 20.398438 20.175781 C 20.148438 20.585938 19.613281 20.714844 19.203125 20.464844 C 15.925781 18.460938 11.800781 18.007812 6.941406 19.121094 C 6.472656 19.226562 6.007812 18.933594 5.902344 18.464844 C 5.792969 17.996094 6.085938 17.53125 6.554688 17.421875 C 11.871094 16.207031 16.433594 16.730469 20.113281 18.980469 C 20.523438 19.230469 20.652344 19.765625 20.398438 20.175781 Z M 22.109375 16.375 C 21.792969 16.886719 21.125 17.050781 20.613281 16.734375 C 16.859375 14.429688 11.140625 13.761719 6.703125 15.105469 C 6.128906 15.28125 5.519531 14.957031 5.34375 14.382812 C 5.171875 13.808594 5.496094 13.199219 6.070312 13.023438 C 11.140625 11.488281 17.441406 12.230469 21.75 14.878906 C 22.261719 15.195312 22.421875 15.863281 22.109375 16.375 Z M 22.253906 12.417969 C 17.757812 9.746094 10.335938 9.5 6.039062 10.804688 C 5.351562 11.011719 4.621094 10.625 4.414062 9.933594 C 4.203125 9.246094 4.59375 8.515625 5.28125 8.304688 C 10.210938 6.808594 18.410156 7.097656 23.585938 10.171875 C 24.210938 10.539062 24.414062 11.34375 24.042969 11.960938 C 23.675781 12.582031 22.875 12.785156 22.253906 12.417969 Z M 22.253906 12.417969 "/>
</g>
</svg>
